HIERARCHY
ROOT hip
{
  OFFSET 0 0 0
  CHANNELS 6 Xposition Yposition Zposition Zrotation Yrotation Xrotation
  JOINT abdomen
  {
    OFFSET 0 20.6881 -0.73152
    CHANNELS 3 Zrotation Xrotation Yrotation
    JOINT chest
    {
      OFFSET 0 11.7043 -0.48768
      CHANNELS 3 Zrotation Xrotation Yrotation
      JOINT neck
      {
        OFFSET 0 22.1894 -2.19456
        CHANNELS 3 Zrotation Xrotation Yrotation
        JOINT head
        {
          OFFSET -0.24384 7.07133 1.2192
          CHANNELS 3 Zrotation Xrotation Yrotation
          JOINT leftEye
          {
            OFFSET 4.14528 8.04674 8.04672
            CHANNELS 3 Zrotation Xrotation Yrotation
            End Site
            {
              OFFSET 1 0 0
            }
          }
          JOINT rightEye
          {
            OFFSET -3.6576 8.04674 8.04672
            CHANNELS 3 Zrotation Xrotation Yrotation
            End Site
            {
              OFFSET 1 0 0
            }
          }
        }
      }
      JOINT rCollar
      {
        OFFSET -2.68224 19.2634 -4.8768
        CHANNELS 3 Zrotation Xrotation Yrotation
        JOINT rShldr
        {
          OFFSET -8.77824 -1.95073 1.46304
          CHANNELS 3 Zrotation Xrotation Yrotation
          JOINT rForeArm
          {
            OFFSET -28.1742 -1.7115 0.48768
            CHANNELS 3 Zrotation Xrotation Yrotation
            JOINT rHand
            {
              OFFSET -22.5879 0.773209 7.07136
              CHANNELS 3 Zrotation Xrotation Yrotation
              JOINT rThumb1
              {
                OFFSET -1.2192 -0.487915 3.41376
                CHANNELS 3 Zrotation Xrotation Yrotation
                JOINT rThumb2
                {
                  OFFSET -3.37035 -0.52449 3.41376
                  CHANNELS 3 Zrotation Xrotation Yrotation
                  End Site
                  {
                    OFFSET -1.78271 -1.18214 1.43049
                  }
                }
              }
              JOINT rIndex1
              {
                OFFSET -7.75947 0.938293 5.60832
                CHANNELS 3 Zrotation Xrotation Yrotation
                JOINT rIndex2
                {
                  OFFSET -2.54057 -0.884171 1.56538
                  CHANNELS 3 Zrotation Xrotation Yrotation
                  End Site
                  {
                    OFFSET -1.62519 -0.234802 1.16502
                  }
                }
              }
              JOINT rMid1
              {
                OFFSET -8.24714 1.18213 3.41376
                CHANNELS 3 Zrotation Xrotation Yrotation
                JOINT rMid2
                {
                  OFFSET -3.10165 -0.590103 1.0647
                  CHANNELS 3 Zrotation Xrotation Yrotation
                  End Site
                  {
                    OFFSET -2.48547 -0.328903 0.83742
                  }
                }
              }
              JOINT rRing1
              {
                OFFSET -8.82822 0.546677 1.51678
                CHANNELS 3 Zrotation Xrotation Yrotation
                JOINT rRing2
                {
                  OFFSET -2.60934 -0.819778 -0.0198488
                  CHANNELS 3 Zrotation Xrotation Yrotation
                  End Site
                  {
                    OFFSET -2.33842 -0.294052 0.168128
                  }
                }
              }
              JOINT rPinky1
              {
                OFFSET -8.27202 -0.0477905 -0.4584
                CHANNELS 3 Zrotation Xrotation Yrotation
                JOINT rPinky2
                {
                  OFFSET -1.82734 -0.647385 -0.700984
                  CHANNELS 3 Zrotation Xrotation Yrotation
                  End Site
                  {
                    OFFSET -1.69225 -0.51767 -0.607171
                  }
                }
              }
            }
          }
        }
      }
      JOINT lCollar
      {
        OFFSET 2.68224 19.2634 -4.8768
        CHANNELS 3 Zrotation Xrotation Yrotation
        JOINT lShldr
        {
          OFFSET 8.77824 -1.95073 1.46304
          CHANNELS 3 Zrotation Xrotation Yrotation
          JOINT lForeArm
          {
            OFFSET 28.1742 -1.7115 0.48768
            CHANNELS 3 Zrotation Xrotation Yrotation
            JOINT lHand
            {
              OFFSET 22.5879 0.773209 7.07136
              CHANNELS 3 Zrotation Xrotation Yrotation
              JOINT lThumb1
              {
                OFFSET 1.2192 -0.487915 3.41376
                CHANNELS 3 Zrotation Xrotation Yrotation
                JOINT lThumb2
                {
                  OFFSET 3.37035 -0.52449 3.41376
                  CHANNELS 3 Zrotation Xrotation Yrotation
                  End Site
                  {
                    OFFSET 1.78271 -1.18214 1.43049
                  }
                }
              }
              JOINT lIndex1
              {
                OFFSET 7.75947 0.938293 5.60832
                CHANNELS 3 Zrotation Xrotation Yrotation
                JOINT lIndex2
                {
                  OFFSET 2.54057 -0.884171 1.56538
                  CHANNELS 3 Zrotation Xrotation Yrotation
                  End Site
                  {
                    OFFSET 1.62519 -0.234802 1.16502
                  }
                }
              }
              JOINT lMid1
              {
                OFFSET 8.24714 1.18213 3.41376
                CHANNELS 3 Zrotation Xrotation Yrotation
                JOINT lMid2
                {
                  OFFSET 3.10165 -0.590103 1.0647
                  CHANNELS 3 Zrotation Xrotation Yrotation
                  End Site
                  {
                    OFFSET 2.48547 -0.328903 0.83742
                  }
                }
              }
              JOINT lRing1
              {
                OFFSET 8.82822 0.546677 1.51678
                CHANNELS 3 Zrotation Xrotation Yrotation
                JOINT lRing2
                {
                  OFFSET 2.60934 -0.819778 -0.0198488
                  CHANNELS 3 Zrotation Xrotation Yrotation
                  End Site
                  {
                    OFFSET 2.33842 -0.294052 0.168128
                  }
                }
              }
              JOINT lPinky1
              {
                OFFSET 8.27202 -0.0477905 -0.4584
                CHANNELS 3 Zrotation Xrotation Yrotation
                JOINT lPinky2
                {
                  OFFSET 1.82734 -0.647385 -0.700984
                  CHANNELS 3 Zrotation Xrotation Yrotation
                  End Site
                  {
                    OFFSET 1.69225 -0.51767 -0.607171
                  }
                }
              }
            }
          }
        }
      }
    }
  }
  JOINT rButtock
  {
    OFFSET -8.77824 4.35084 1.2192
    CHANNELS 3 Zrotation Xrotation Yrotation
    JOINT rThigh
    {
      OFFSET 0 -1.70687 -2.19456
      CHANNELS 3 Zrotation Xrotation Yrotation
      JOINT rShin
      {
        OFFSET 0 -36.8199 0.73152
        CHANNELS 3 Zrotation Xrotation Yrotation
        JOINT rFoot
        {
          OFFSET 0.73152 -45.1104 -5.12064
          CHANNELS 3 Zrotation Xrotation Yrotation
          End Site
          {
            OFFSET -1.1221 -3.69964 12.103
          }
        }
      }
    }
  }
  JOINT lButtock
  {
    OFFSET 8.77824 4.35084 1.2192
    CHANNELS 3 Zrotation Xrotation Yrotation
    JOINT lThigh
    {
      OFFSET 0 -1.70687 -2.19456
      CHANNELS 3 Zrotation Xrotation Yrotation
      JOINT lShin
      {
        OFFSET 0 -36.8199 0.73152
        CHANNELS 3 Zrotation Xrotation Yrotation
        JOINT lFoot
        {
          OFFSET -0.73152 -45.1104 -5.12064
          CHANNELS 3 Zrotation Xrotation Yrotation
          End Site
          {
            OFFSET 1.1221 -3.69964 12.103
          }
        }
      }
    }
  }
}
MOTION
Frames:	4
Frame Time:	0.03333
-1.4875295303794611 56.26293196717133 132.80243516102124 -10.612151145935059 -58.02702713012695 7.139607906341553 1.2183574438095093 11.814767837524414 14.521318435668945 -2.4488754272460938 -11.517434120178223 3.6541826725006104 -0.6304504871368408 13.500799179077148 9.362751960754395 6.492527484893799 -20.44837188720703 19.49041175842285 -0.007417863700538874 0.15380054712295532 -0.08149760961532593 0.06826028972864151 0.07894829660654068 -0.15765434503555298 0.1626627892255783 0.02551928721368313 -0.19186535477638245 51.05111312866211 81.018798828125 15.813643455505371 -25.861337661743164 -46.4134407043457 95.9197998046875 -36.062469482421875 -78.34407806396484 -43.307586669921875 0.03485913574695587 -0.12962499260902405 0.14424772560596466 0.0550861656665802 0.04659205675125122 -0.016800396144390106 0.03831779584288597 -0.014211645349860191 0.0584554597735405 7.681087970733643 5.3401288986206055 0.5056926012039185 -0.050726111978292465 0.048829708248376846 0.02514759637415409 2.9733548164367676 0.8708818554878235 -0.04294618219137192 -0.1223457008600235 -0.056030113250017166 -0.07052195072174072 10.13400650024414 0.69047611951828 -0.1072145402431488 0.18305052816867828 -0.06985756754875183 0.02102040871977806 2.2109744548797607 -0.6172667741775513 -0.2001556158065796 -0.04169251397252083 0.0364115834236145 0.015025331638753414 -66.67554473876953 5.380502223968506 -31.514122009277344 28.399906158447266 -34.00908660888672 -73.6343765258789 0.7221676707267761 18.521947860717773 -2.9477651119232178 -0.08542217314243317 -0.0534752681851387 -0.013477334752678871 0.11169592291116714 -0.10324713587760925 0.023998642340302467 0.012011798098683357 0.05483204498887062 -0.11298904567956924 -7.6689629554748535 5.484297275543213 -0.4220302104949951 -0.10893940180540085 0.05131050944328308 -0.021539615467190742 -2.8353195190429688 1.0505999326705933 -0.017067348584532738 -0.12876765429973602 -0.15990912914276123 0.05330875515937805 -10.139068603515625 0.7309424877166748 -0.15659034252166748 -0.017696773633360863 0.018346883356571198 0.06999880075454712 -1.9277557134628296 -0.8316347599029541 0.07980065792798996 0.16036444902420044 0.1364915668964386 -0.11311948299407959 -25.547468185424805 -30.175508499145508 -34.2566032409668 -2.974482536315918 79.11813354492188 5.401577472686768 -11.153276443481445 -24.5606746673584 -24.668611526489258 0.02825278230011463 -0.07398848980665207 -0.09167370200157166 61.778587341308594 -38.89591979980469 62.20393753051758 1.522703766822815 65.52916717529297 -1.291974425315857 0.0027403144631534815 5.866822719573975 5.048058986663818
-1.509546751890703 56.28427289323304 132.9643146464145 -10.776885986328125 -57.88690185546875 7.399472236633301 1.3571306467056274 11.704699516296387 14.40624713897705 -2.4299161434173584 -11.473814010620117 3.6130409240722656 -0.6429164409637451 13.526601791381836 9.298809051513672 6.512998580932617 -20.56962013244629 19.397174835205078 0.0025516885798424482 0.14653457701206207 -0.08506070077419281 0.06219177320599556 0.06967262178659439 -0.15613801777362823 0.17067602276802063 0.026567690074443817 -0.19266626238822937 50.678062438964844 81.04568481445312 16.114559173583984 -25.844112396240234 -46.33250045776367 95.85802459716797 -35.80030822753906 -78.296875 -43.043182373046875 0.03940636292099953 -0.12971952557563782 0.13050146400928497 0.05066027119755745 0.046768974512815475 -0.014632263220846653 0.03242940828204155 -0.020200606435537338 0.05217878147959709 7.6866536140441895 5.3343353271484375 0.5164914131164551 -0.05089787393808365 0.05107348784804344 0.025653308257460594 2.971386671066284 0.8822891116142273 -0.03934242203831673 -0.1230720579624176 -0.05741661787033081 -0.06924530863761902 10.134390830993652 0.6873897910118103 -0.11170051991939545 0.19467522203922272 -0.06824780255556107 0.02207423374056816 2.2151148319244385 -0.6147317290306091 -0.19292180240154266 -0.03585618734359741 0.025125334039330482 0.008761008270084858 -66.77554321289062 5.331207275390625 -31.51892852783203 28.404260635375977 -33.97145080566406 -73.5556869506836 0.7117025256156921 18.581422805786133 -2.9543297290802 -0.07109159231185913 -0.05925081670284271 -0.0018217840697616339 0.10698568820953369 -0.09779522567987442 0.022861968725919724 0.01014722790569067 0.05697552114725113 -0.12037645280361176 -7.668938636779785 5.479105472564697 -0.4173057973384857 -0.10390447080135345 0.054037902504205704 -0.02060271054506302 -2.826791763305664 1.0529112815856934 -0.020671967417001724 -0.12362974137067795 -0.16854603588581085 0.05285635590553284 -10.137877464294434 0.7355492115020752 -0.15869438648223877 -0.015836289152503014 0.014160760678350925 0.07182577252388 -1.927854061126709 -0.8421612977981567 0.06857353448867798 0.15503822267055511 0.13305437564849854 -0.11459382623434067 -25.555849075317383 -29.98102569580078 -34.420982360839844 -2.9940102100372314 79.00045776367188 5.4255852699279785 -11.103349685668945 -24.418540954589844 -24.71384048461914 0.02643822692334652 -0.07513607293367386 -0.0777043029665947 61.89446258544922 -38.952919006347656 62.44327926635742 1.5077531337738037 65.58186340332031 -1.2618173360824585 0.009655104018747807 5.90225887298584 5.0991926193237305
-1.5349507867349192 56.29808695082939 133.12586932429622 -10.902166366577148 -57.72764587402344 7.647651672363281 1.4702142477035522 11.605123519897461 14.29836368560791 -2.4087069034576416 -11.430996894836426 3.5729565620422363 -0.6612242460250854 13.549216270446777 9.232319831848145 6.531440258026123 -20.695356369018555 19.29827308654785 0.01334593165665865 0.1397397518157959 -0.08756314963102341 0.05668841674923897 0.05998586118221283 -0.15563294291496277 0.17520348727703094 0.02766191028058529 -0.19408847391605377 50.4591178894043 81.05984497070312 16.284198760986328 -25.836563110351562 -46.24555587768555 95.78069305419922 -35.55803298950195 -78.2519760131836 -42.80246353149414 0.043287817388772964 -0.12712588906288147 0.1187748908996582 0.0444856658577919 0.04539698362350464 -0.012907668948173523 0.027548618614673615 -0.02484956756234169 0.04524572938680649 7.691717624664307 5.329672336578369 0.5265260934829712 -0.04733360931277275 0.04986528307199478 0.02706708386540413 2.9692718982696533 0.8929564356803894 -0.032727908343076706 -0.12477727234363556 -0.05832458660006523 -0.06574968248605728 10.136126518249512 0.6853917837142944 -0.11376708000898361 0.20515383780002594 -0.06878656148910522 0.021324167028069496 2.2187798023223877 -0.6115835309028625 -0.1866234689950943 -0.03162321448326111 0.014963245950639248 0.003005929524078965 -66.8587875366211 5.29230260848999 -31.5286808013916 28.401691436767578 -33.916351318359375 -73.46334075927734 0.6993170976638794 18.615707397460938 -2.9555554389953613 -0.05684765800833702 -0.06375721842050552 0.009459516033530235 0.10256873816251755 -0.09165588766336441 0.022571569308638573 0.006486969534307718 0.05719772353768349 -0.1291172057390213 -7.668356418609619 5.476166725158691 -0.41184645891189575 -0.09769142419099808 0.0536506287753582 -0.020007332786917686 -2.819336175918579 1.0545185804367065 -0.022232744842767715 -0.11849839985370636 -0.17638559639453888 0.052770067006349564 -10.138639450073242 0.7412039041519165 -0.15810570120811462 -0.013922972604632378 0.01114592794328928 0.07347740232944489 -1.9277877807617188 -0.8520530462265015 0.06144782900810242 0.15082046389579773 0.12947185337543488 -0.11639642715454102 -25.56543731689453 -29.80712890625 -34.557125091552734 -3.0210869312286377 78.89891052246094 5.451320648193359 -11.048236846923828 -24.28131866455078 -24.726469039916992 0.024647049605846405 -0.07594803720712662 -0.0659276470541954 61.96987533569336 -39.017333984375 62.618282318115234 1.4910171031951904 65.61906433105469 -1.2327767610549927 0.011062282137572765 5.953643798828125 5.153191566467285
-1.5632971390075299 56.306672498616095 133.28880354030773 -10.99304485321045 -57.554405212402344 7.887485027313232 1.559706687927246 11.513896942138672 14.200547218322754 -2.385558605194092 -11.388998031616211 3.53589129447937 -0.683689534664154 13.571613311767578 9.168156623840332 6.549343109130859 -20.823225021362305 19.202573776245117 0.024399559944868088 0.13358654081821442 -0.08896542340517044 0.051975056529045105 0.05061832070350647 -0.1555880606174469 0.17742100358009338 0.028644489124417305 -0.19521315395832062 50.375267028808594 81.06725311279297 16.338518142700195 -25.83711051940918 -46.158241271972656 95.694091796875 -35.32783889770508 -78.2074203491211 -42.57648468017578 0.04615866392850876 -0.12263072282075882 0.10870949923992157 0.03726547583937645 0.04224521294236183 -0.011050139553844929 0.023287875577807426 -0.028217153623700142 0.0383126437664032 7.696675777435303 5.325861930847168 0.5352456569671631 -0.04127318039536476 0.047158222645521164 0.028966456651687622 2.967435598373413 0.9025853276252747 -0.02423187904059887 -0.12669727206230164 -0.058078832924366 -0.060883838683366776 10.138980865478516 0.6842575669288635 -0.11427642405033112 0.21451395750045776 -0.0711684599518776 0.019328642636537552 2.221963882446289 -0.6080222129821777 -0.1815042495727539 -0.028669865801930428 0.006345788482576609 -0.0016933339647948742 -66.92058563232422 5.266176700592041 -31.539886474609375 28.393877029418945 -33.84681701660156 -73.35919952392578 0.686398983001709 18.631832122802734 -2.9526143074035645 -0.04331035166978836 -0.06638340651988983 0.019348081201314926 0.09749476611614227 -0.08556079119443893 0.02367548830807209 0.001726949936710298 0.05541035532951355 -0.13812436163425446 -7.667745113372803 5.475132465362549 -0.40663856267929077 -0.09029106795787811 0.05103541910648346 -0.019328875467181206 -2.81349778175354 1.0555003881454468 -0.021693363785743713 -0.1134810671210289 -0.18345652520656586 0.0525236539542675 -10.140888214111328 0.7472471594810486 -0.15532930195331573 -0.011905338615179062 0.008602124638855457 0.07463482767343521 -1.927492380142212 -0.8612498641014099 0.057994693517684937 0.14701059460639954 0.12582315504550934 -0.11788906902074814 -25.581275939941406 -29.65427589416504 -34.66672134399414 -3.0512351989746094 78.81631469726562 5.477926254272461 -10.989751815795898 -24.15833282470703 -24.710186004638672 0.02265685796737671 -0.07647810131311417 -0.056250642985105515 62.01797866821289 -39.0855598449707 62.742156982421875 1.473253607749939 65.648193359375 -1.205807089805603 0.006653303746134043 6.011285305023193 5.213401794433594
